<svg id="visual" viewBox="0 0 960 540" width="960" height="540" xmlns="http://www.w3.org/2000/svg" xmlns:xlink="http://www.w3.org/1999/xlink" version="1.1"><rect x="0" y="0" width="960" height="540" fill="#fff"></rect><defs><linearGradient id="grad1_0" x1="43.8%" y1="0%" x2="100%" y2="100%"><stop offset="14.444444444444446%" stop-color="#ffffff" stop-opacity="1"></stop><stop offset="85.55555555555554%" stop-color="#ffffff" stop-opacity="1"></stop></linearGradient></defs><defs><linearGradient id="grad2_0" x1="0%" y1="0%" x2="56.3%" y2="100%"><stop offset="14.444444444444446%" stop-color="#ffffff" stop-opacity="1"></stop><stop offset="85.55555555555554%" stop-color="#ffffff" stop-opacity="1"></stop></linearGradient></defs><g transform="translate(960, 0)"><path d="M0 270C-35.6 266.9 -71.2 263.8 -103.3 249.4C-135.5 235.1 -164.3 209.4 -180.3 180.3C-196.4 151.2 -199.7 118.6 -212.5 88C-225.3 57.4 -247.7 28.7 -270 0L0 0Z" fill="#94192F"></path></g><g transform="translate(0, 540)"><path d="M0 -270C34.6 -259.4 69.2 -248.8 95.7 -231C122.1 -213.2 140.4 -188.2 167.6 -167.6C194.8 -146.9 230.9 -130.5 249.4 -103.3C268 -76.1 269 -38.1 270 0L0 0Z" fill="#94192F"></path></g></svg>