<svg id="visual" viewBox="0 0 900 450" width="900" height="450" xmlns="http://www.w3.org/2000/svg" xmlns:xlink="http://www.w3.org/1999/xlink" version="1.1"><g stroke-width="1" stroke-linejoin="bevel"><path d="M338 200L580 0L268 0Z" fill="#fdfdfd" stroke="#fdfdfd"></path><path d="M338 200L585 212L580 0Z" fill="#f7f7f7" stroke="#f7f7f7"></path><path d="M0 237L356 450L338 200Z" fill="#f7f7f7" stroke="#f7f7f7"></path><path d="M338 200L356 450L585 212Z" fill="#ffffff" stroke="#ffffff"></path><path d="M356 450L584 450L585 212Z" fill="#f7f7f7" stroke="#f7f7f7"></path><path d="M268 0L0 237L338 200Z" fill="#f7f7f7" stroke="#f7f7f7"></path><path d="M0 0L0 237L268 0Z" fill="#fefefe" stroke="#fefefe"></path><path d="M900 167L900 0L580 0Z" fill="#fefefe" stroke="#fefefe"></path><path d="M900 167L580 0L585 212Z" fill="#ffffff" stroke="#ffffff"></path><path d="M900 450L900 167L585 212Z" fill="#fefefe" stroke="#fefefe"></path><path d="M0 237L0 450L356 450Z" fill="#fdfdfd" stroke="#fdfdfd"></path><path d="M584 450L900 450L585 212Z" fill="#f7f7f7" stroke="#f7f7f7"></path></g></svg>