<svg id="visual" viewBox="0 0 960 540" width="960" height="540" xmlns="http://www.w3.org/2000/svg" xmlns:xlink="http://www.w3.org/1999/xlink" version="1.1"><rect x="0" y="0" width="960" height="540" fill="#fff"></rect><path d="M0 478L53.3 478.3C106.7 478.7 213.3 479.3 320 476.2C426.7 473 533.3 466 640 467.3C746.7 468.7 853.3 478.3 906.7 483.2L960 488L960 541L906.7 541C853.3 541 746.7 541 640 541C533.3 541 426.7 541 320 541C213.3 541 106.7 541 53.3 541L0 541Z" fill="#c78800"></path><path d="M0 500L53.3 497.8C106.7 495.7 213.3 491.3 320 493.8C426.7 496.3 533.3 505.7 640 506.7C746.7 507.7 853.3 500.3 906.7 496.7L960 493L960 541L906.7 541C853.3 541 746.7 541 640 541C533.3 541 426.7 541 320 541C213.3 541 106.7 541 53.3 541L0 541Z" fill="#6d1324"></path></svg>