<svg id="visual" viewBox="0 0 960 540" width="960" height="540" xmlns="http://www.w3.org/2000/svg" xmlns:xlink="http://www.w3.org/1999/xlink" version="1.1"><rect x="0" y="0" width="960" height="540" fill="#fff"></rect><path d="M0 492L53.3 488C106.7 484 213.3 476 320 473.8C426.7 471.7 533.3 475.3 640 474C746.7 472.7 853.3 466.3 906.7 463.2L960 460L960 541L906.7 541C853.3 541 746.7 541 640 541C533.3 541 426.7 541 320 541C213.3 541 106.7 541 53.3 541L0 541Z" fill="#c78800"></path><path d="M0 491L53.3 495.2C106.7 499.3 213.3 507.7 320 507.8C426.7 508 533.3 500 640 500.7C746.7 501.3 853.3 510.7 906.7 515.3L960 520L960 541L906.7 541C853.3 541 746.7 541 640 541C533.3 541 426.7 541 320 541C213.3 541 106.7 541 53.3 541L0 541Z" fill="#6d1324"></path></svg>