<svg id="visual" viewBox="0 0 960 540" width="960" height="540" xmlns="http://www.w3.org/2000/svg" xmlns:xlink="http://www.w3.org/1999/xlink" version="1.1"><rect x="0" y="0" width="960" height="540" fill="#fff"></rect><path d="M0 493L53.3 491.7C106.7 490.3 213.3 487.7 320 481.5C426.7 475.3 533.3 465.7 640 462.5C746.7 459.3 853.3 462.7 906.7 464.3L960 466L960 541L906.7 541C853.3 541 746.7 541 640 541C533.3 541 426.7 541 320 541C213.3 541 106.7 541 53.3 541L0 541Z" fill="#c78800"></path><path d="M0 504L53.3 503.2C106.7 502.3 213.3 500.7 320 498.8C426.7 497 533.3 495 640 498.2C746.7 501.3 853.3 509.7 906.7 513.8L960 518L960 541L906.7 541C853.3 541 746.7 541 640 541C533.3 541 426.7 541 320 541C213.3 541 106.7 541 53.3 541L0 541Z" fill="#6d1324"></path></svg>