<svg id="visual" viewBox="0 0 960 540" width="960" height="540" xmlns="http://www.w3.org/2000/svg" xmlns:xlink="http://www.w3.org/1999/xlink" version="1.1"><rect x="0" y="0" width="960" height="540" fill="#fff"></rect><path d="M0 482L53.3 482.5C106.7 483 213.3 484 320 485.3C426.7 486.7 533.3 488.3 640 484C746.7 479.7 853.3 469.3 906.7 464.2L960 459L960 541L906.7 541C853.3 541 746.7 541 640 541C533.3 541 426.7 541 320 541C213.3 541 106.7 541 53.3 541L0 541Z" fill="#c78800"></path><path d="M0 514L53.3 511.7C106.7 509.3 213.3 504.7 320 501.3C426.7 498 533.3 496 640 496C746.7 496 853.3 498 906.7 499L960 500L960 541L906.7 541C853.3 541 746.7 541 640 541C533.3 541 426.7 541 320 541C213.3 541 106.7 541 53.3 541L0 541Z" fill="#6d1324"></path></svg>